<svg xmlns:xlink="http://www.w3.org/1999/xlink" xmlns="http://www.w3.org/2000/svg" viewBox="0 0 188 181" width="188"  height="181" ><style>.a{fill:#ff6e6e}.b{fill:#fff}.c{stroke:#ff6e6e}.d{stroke-linecap:round;stroke-width:2.5}</style><g class="a"><rect width="17.5" height="3" x="10.5" y="178" ry="1.5"/><rect width="108" height="3" x="33" y="178" ry="1.5"/><rect width="3" height="12" x="50.1" y="167" ry="0"/></g><rect class="b c d" width="12.5" height="42.2" x="45.3" y="125.3" ry="6"/><rect class="a" width="54" height="9" x="59" y="170" ry="1.3"/><rect class="b" width="37.2" height="5.3" x="73" y="172.5" ry="0"/><rect class="a" width="23" height="52.3" x="79" y="119" ry="1.2"/><path class="b" d="M81.7 121.5h17.6v49H81.7z"/><path class="a" d="m81.2 125.2 18.2 17.5v3.7L81.2 129zm0 12.8 18.2 17.6v3.7l-18.2-17.5zm0 13 18.2 17.6v3.7l-18.2-17.5z"/><rect class="a" width="5" height="55" x="75" y="116" ry="0"/><circle class="a" cx="88.9" cy="111.4" r="14.9"/><circle class="b" cx="90.4" cy="109.7" r="11.8"/><path class="a" d="M136.3 109.5c-5 10.5-27.6 16.7-49 1.4-21.9-13-35.3-46.7-18.6-64.4Z"/><ellipse class="b c d" cx="4.8" cy="130.8" rx="18.9" ry="44.5" transform="matrix(.28 -.96 .77 .64 0 0)"/><path class="b c d" d="m120.4 59.8-10.8 22.7c-4 5.3-17.7-8.6-12-12.1Z"/><circle class="a" cx="122" cy="59" r="7"/><path class="c d" fill="none" d="m118.2 3-6.6 5.7 5.9 5.4-5.9 5.4 6 5.2-6 5.1 5.9 5.6-6.3 5.2m48.4-16.3-8.6-.1.8 7.9-8 .1 1 8-8-.3.7 8-8-.2M178 71.5l-5.7-6.5-5.5 5.8-5.4-6-5.2 6-5-6-5.7 5.8-5.1-6.3"/></svg>