<svg xmlns:xlink="http://www.w3.org/1999/xlink" xmlns="http://www.w3.org/2000/svg" viewBox="0 0 215 168" width="215"  height="168" ><path fill="#e1eaf7" d="M58.8 22.4a8.2 8.2 0 0 0-3-.6c-4 0-7.3 2.7-7.6 6.2H30.3a.9.9 0 0 0-.7.5.9.9 0 0 0-.8-.5H22a1 1 0 0 0-.9 1c0 .5.4.9 1 .9h6.7a.9.9 0 0 0 .8-.5.9.9 0 0 0 .7.5h50c.4 0 .8-.4.8-1a1 1 0 0 0-1-1h-2.8c-.2-5.4-4.7-10-10.2-10a10 10 0 0 0-8.3 4.5zM174 14.1a8.1 8.1 0 0 0-3-.6c-4 0-7.2 2.8-7.5 6.3h-17.8a.9.9 0 0 0-.8.5.9.9 0 0 0-.8-.5h-6.8a1 1 0 0 0-1 .9c0 .5.5 1 1 1h6.7c.3 0 .6-.3.8-.6a.9.9 0 0 0 .8.5h49.7c.5 0 1-.4 1-.9a1 1 0 0 0-1-1h-2.8c-.3-5.4-4.8-9.8-10.3-9.8a10 10 0 0 0-8.2 4.3z"/><path fill="#c4d9f6" d="M23.7 91.4a7.7 7.7 0 0 0-3-.6c-3.8 0-7 2.7-7.2 6.2H5.3a1 1 0 0 0-1 1c0 .4.5.9 1 .9h39c.5 0 .9-.5.9-1s-.4-1-1-1h-2.7c-.2-5.4-4.6-10-10-10a9.8 9.8 0 0 0-8 4.5z"/><path fill="#e1eaf7" d="M183.5 122.7a8 8 0 0 0-4.9-1.7c-3.9 0-7 2.8-7.3 6.3h-10.7a1 1 0 0 0-.9 1c0 .4.4 1 1 1h49c.5 0 1-.6 1-1 0-.6-.5-1-1-1h-1.5c-.3-2.7-2.8-4.7-5.7-4.7h-1.3a10 10 0 0 0-8.9-5.2 10 10 0 0 0-8.8 5.4z"/><path fill="#2d69e0" d="M80 57.4v.1a18.8 18.8 0 0 0-1.6 0 18.8 18.8 0 0 0-17.2 18.8V115a1.4 1.4 0 0 0 1.4 1.4h83.2a5 5 0 0 0 5-5V76.3c0-10.4-8.4-18.9-18.8-18.9H80zm0 2.9a16 16 0 0 1 16 16v37.3H75.2v-.1c-.9-.1-.7-.8-.7-1V72.7c-.5-8.2 3.6-11.4 5.1-12.4a16 16 0 0 1 .4 0zm9.9 0h42.3a16 16 0 0 1 16 16v35.1c0 1.2-1 2.3-2.2 2.2H98.8V76.3a18.8 18.8 0 0 0-9-16z"/><path fill="#00fff1" stroke="#00fff1" stroke-linejoin="round" stroke-width="3" d="M112 39v9.6l14.6-4.7z"/><g fill="#2d69e0"><rect width="2.8" height="47.4" x="110.5" y="114.5" ry="1.4"/><rect width="2.8" height="47.4" x="103.1" y="114.5" ry="1.4"/><rect width="2.8" height="47.4" x="95.9" y="114.5" ry="1.4"/><rect width="2.8" height="40.2" x="110.5" y="37.4" ry="1.2"/><rect width="39.4" height="3" x="26" y="113.4" ry="1.5"/></g><circle cx="111.9" cy="79.7" r="3.2" fill="none" stroke="#2d69e0" stroke-linejoin="round" stroke-width="3.1"/><rect width="46" height="30" x="35.5" y="76.7" fill="#fff" stroke="#2d69e0" stroke-linejoin="round" stroke-width="3.2" ry="2.1"/><path fill="#2d69e0" d="M54.9 95 34.6 78.3l1.8-2.2 20.2 16.7c.6.4 1.4.4 2 0l21-16.7 2.6 1.5-22 17.4c-1.9 1.1-3.7 1.1-5.3 0z"/></svg>