<svg fill="#fff" viewBox="0 0 24 24" id="close" xmlns="http://www.w3.org/2000/svg" stroke="#fff" >
  <g id="SVGRepo_bgCarrier" stroke-width="0"></g>
  <g id="SVGRepo_tracerCarrier" stroke-linecap="round" stroke-linejoin="round"></g>
  <g id="SVGRepo_iconCarrier">
    <g data-name="Layer 2">
      <g data-name="close">
        <rect width="24" height="24" transform="rotate(180 12 12)" opacity="0"></rect>
        <path d="M13.41 12l4.3-4.29a1 1 0 1 0-1.42-1.42L12 10.59l-4.29-4.3a1 1 0 0 0-1.42 1.42l4.3 4.29-4.3 4.29a1 1 0 0 0 0 1.42 1 1 0 0 0 1.42 0l4.29-4.3 4.29 4.3a1 1 0 0 0 1.42 0 1 1 0 0 0 0-1.42z"></path>
      </g>
    </g>
  </g>
</svg>