<svg xmlns="http://www.w3.org/2000/svg" viewBox="0 0 254 133">
  <defs>
    <g id="a">
      <rect width="48" height="65" x="3" y="3" fill="#fff" stroke="#2d6ade" stroke-linecap="square" stroke-width="3" ry="11" />
      <rect width="15" height="3" x="30" y="59" fill="#2d6ade" ry="1.4" />
    </g>
    <g id="b">
      <use href="#a" />
      <circle cx="27" cy="28" r="21" fill="#2d6ade" />
      <path fill="#fff" fill-rule="evenodd" d="M13.7 27.8c0-.3-.4-.4-1.2-.6-2-.5-2.6-1-2.6-2.2 0-1.3 1-2 2.7-2 .8 0 1.7.2 2.5.5l-.5 1.4a5.5 5.5 0 0 0-2-.4c-.5 0-.9.2-.9.5 0 .2.3.4 1.2.6 2 .5 2.4 1 2.4 2.3 0 1.3-1 2-2.8 2a8 8 0 0 1-2.7-.6l.5-1.5c.7.4 1.6.6 2.2.6.6 0 1.1-.2 1.1-.6zm5.8 2c-1.8.2-2.8-1-2.8-3V23h1.8v3.4c0 1.3.4 1.8 1.3 1.8.6 0 1-.2 1.6-.6V23h1.8v6.8h-1.8V29c-.5.5-1.2.8-1.9.8zm11.3-6c-.4-.4-1-.8-2-.8-.8 0-1.4.3-1.8.8V23h-1.8v6.8H27v-4.6a2 2 0 0 1 1.4-.6c.8 0 1.2.5 1.2 1.8v3.4h1.8v-4.6c.5-.4 1-.6 1.4-.6 1 0 1.2.5 1.2 1.8v3.4h1.8V26c0-2-1-3.2-2.6-3.2-1 0-1.8.4-2.4 1zm11.6 1.4a3 3 0 0 0-1.6-.6c-1 0-1.8.7-1.8 1.9s.8 1.9 1.8 1.9a3 3 0 0 0 1.6-.6zm-5.2 1.3c0 2 1.4 3.4 3.4 3.4.7 0 1.4-.3 1.8-.6v.6h1.8v-7h-1.8v.7a3 3 0 0 0-1.8-.7c-2 0-3.4 1.5-3.4 3.5z" clip-rule="evenodd" />
    </g>
    <g id="c">
      <use href="#a" />
      <path fill="#fff" d="M13.7 24.8c0-.3-.4-.4-1.2-.6-2-.5-2.6-1-2.6-2.2 0-1.3 1-2 2.7-2 .8 0 1.7.2 2.5.5l-.5 1.4a5.5 5.5 0 0 0-2-.4c-.5 0-.9.2-.9.5 0 .2.3.4 1.2.6 2 .5 2.4 1 2.4 2.3 0 1.3-1 2-2.8 2a8 8 0 0 1-2.7-.6l.5-1.5c.7.4 1.6.6 2.2.6.6 0 1.1-.2 1.1-.6zm5.8 2c-1.8.2-2.8-1-2.8-3V20h1.8v3.4c0 1.3.4 1.8 1.3 1.8.6 0 1-.2 1.6-.6V20h1.8v6.8h-1.8V26c-.5.5-1.2.8-1.9.8zm11.3-6c-.4-.4-1-.8-2-.8-.8 0-1.4.3-1.8.8V20h-1.8v6.8H27v-4.6a2 2 0 0 1 1.4-.6c.8 0 1.2.5 1.2 1.8v3.4h1.8v-4.6c.5-.4 1-.6 1.4-.6 1 0 1.2.5 1.2 1.8v3.4h1.8V23c0-2-1-3.2-2.6-3.2-1 0-1.8.4-2.4 1zm11.6 1.4a3 3 0 0 0-1.6-.6c-1 0-1.8.7-1.8 1.9s.8 1.9 1.8 1.9a3 3 0 0 0 1.6-.6zm-5.2 1.3c0 2 1.4 3.4 3.4 3.4.7 0 1.4-.3 1.8-.6v.6h1.8v-7h-1.8v.7a3 3 0 0 0-1.8-.7c-2 0-3.4 1.5-3.4 3.5z" clip-rule="evenodd" />
      <path fill="#2d6ade" d="M17.1 33.5c-4.2-.6-5.1-6.7-3.6-11.8 1.6-5.1 6.2-10.1 12.8-8 1 .3 1.9 1 2.6 1.8 1.9-1.8 3.2-2.3 6.7-2.4 3.6-.3 5.7 1.6 5.6 4.4-.1 2.8-1.5 3.2-3.5 4.8-2.2 1.5-4.5 3-6.8 4.1v-2.1c2-1.6 5.3-3.4 6-5.8.2-1.4 0-3.2-2.1-3.3-1.4 0-2.6.7-3.4 1.8-2 2.7-2.9 6-2.7 9.4.2 1.9 1.2 4.2 3.1 4.1 3.2-.7 4.7-1.6 7.2-3.3l1 1.6c-2.6 2.4-5.4 4.9-9.3 4.9-2.9 0-5-.8-6-3.1-2.2 1.7-4.2 3.5-7.6 3zm5.4-18a9.6 9.6 0 0 0-4.4 7c-.4 2.4-.5 5.5 1.3 7.2 1.3.8 3.4-.7 5-1.8-.7-3.7.7-6.8 1.5-10.1 0-2.5-1.3-3.2-3.4-2.3z" />
    </g>
    <g id="d">
      <use href="#a" />
      <path fill="#2d6ade" d="M35 10.5 29.3 17l-4.4-2.4.7-1c1.8-2.5-1.4-4.8-3.2-2.7l-1.6 1.8-5.6-3c-2.2-.9-4 1.5-2.4 3.4l11.3 10-4.8 5.5-2.9-1.7c-2.2-1.3-4.4 1.8-2.4 3.5l2 1.7-.8.8c-1.8 2 1.1 5.5 3.2 2.8l.7-.8 2.2 1.8c1.9 1.6 4.7-.6 3-3l-1.7-2.6 4.7-5.5 11 9.6c1.9 1.6 4.6-.7 3.1-2.7l-3.6-4.9 1.7-1.8c2-2-1.2-5-3.1-3l-1.1 1.3-3-4 6-6.8c1.9-2.2-1.3-5-3.2-2.8z" />
    </g>
    <path id="s" d="m11.5 13.7-4.4-2.1-4.5 2 .7-4.9L0 5.1l4.8-.9L7.2 0l2.3 4.3 4.8 1L11 8.8s.6 4.8.5 4.9z" />
  </defs>
  <g fill="#00fff0">
    <use href="#s" transform="rotate(62 .8 18.7)" />
    <use href="#s" fill="#fff" transform="matrix(.76 .25 -.22 .86 125.8 -5.4)" />
    <use href="#s" transform="rotate(23 -20 315.6) scale(.47)" />
    <use href="#s" fill="#c4d9f6" transform="rotate(-15 187.5 -31) scale(.85)" />
    <use href="#s" transform="rotate(8 -702.4 1228.8) scale(.59)" />
    <use href="#s" transform="rotate(-2 834.2 -3816.6)" />
  </g>
  <path fill="#e1eaf7" d="M198.5 19c-2.5-2-5.6-3-9.1-3-7.2 0-13.2 5-13.7 11.5h-19.8c-1 0-1.7.8-1.7 1.7 0 1 .8 1.7 1.7 1.7h91.3c1 0 1.7-.7 1.7-1.7s-.7-1.7-1.7-1.7h-2.8c-.5-4.9-5-8.7-10.6-8.7-.8 0-1.6 0-2.4.2-3.2-6-9.4-10-16.4-10-7.1 0-13.3 4-16.5 10z" opacity=".6" />
  <path fill="#e1eaf7" d="M42.4 113.8c-1.6-.7-3.3-1-5.2-1-6.6 0-12 4.7-12.5 10.8h-30c-.6 0-1 .3-1.3.8-.3-.5-.8-.8-1.4-.8h-11.2c-.9 0-1.6.7-1.6 1.6 0 .8.7 1.6 1.6 1.6H-8c.6 0 1.1-.4 1.4-.9.2.5.7.9 1.3.9h83.6c.9 0 1.5-.8 1.5-1.6 0-1-.6-1.6-1.5-1.6h-4.8c-.5-9.7-8-17.3-17.2-17.3a17 17 0 0 0-14 7.5z" opacity=".2" />
  <path fill="#c4d9f6" d="M185.5 119a9.3 9.3 0 0 0-13.4 7.2h-10.7c-.6 0-1.2.6-1.2 1.2 0 .7.6 1.2 1.2 1.2h51.4c.7 0 1.2-.5 1.2-1.2 0-.6-.5-1.2-1.2-1.2h-3.6c-.4-7.2-6-12.9-13.2-12.9-4.4 0-8.2 2.2-10.6 5.6z" opacity=".7" />
  <use href="#b" transform="rotate(13 -70 215) scale(1.05)" />
  <use href="#c" transform="rotate(10 -30 850) scale(1.05)" />
  <use href="#d" transform="rotate(-8 400 -575) scale(1.05)" />
</svg>