<svg xmlns="http://www.w3.org/2000/svg" viewBox="0 0 32 32">
  <g fill="#003d79">
    <path d="M25.869 2.74c.1672.0616.2148-.0367.251-.104.0362-.0673.0296-.1528-.013-.218-.14-.1243-.2048-.1151-.495-.231l-.258.668.13.05.102-.275.135.051.039.334.154.058-.045-.334zm-.225-.219.064-.186.168.064c.058.026.154.064.122.154s-.09.09-.167.051zm1.396 4.404-.013.013c5.52 5.555 5.1785 13.9675.315 19.55-5.092 5.06-13.537 6.018-19.166 1.563 6.5726 5.9718 15.4927 4.2384 20.019-.694 5.082-5.3524 5.5201-14.518-1.155-20.432ZM1.91 23.04c-.448.253-.556.63-.32 1.216.212.528.5305.763.912.62.3815-.143.2946-.678.164-1.247-.2184-.8466-.1557-1.5145.454-1.779.6097-.2645 1.2285.1 1.606 1.036.3775.936.2272 1.6829-.579 2.03l-.192-.478c.525-.23.66-.726.384-1.43-.233-.582-.5663-.8407-.985-.682-.441.1671-.3406.7443-.228 1.344.2263.8803.135 1.476-.412 1.668-.6648.2333-1.184-.116-1.51-.925-.353-.887-.167-1.536.511-1.837Zm-.406-5.114 2.154-1.814.016.672-1.83 1.507.598.65 1.28-.029.012.528-3.66.077-.016-.522 1.827-.032-1.866-2.009L0 16.259Zm1.629-5.66 1.405.483-.173.502-1.405-.502-2.531.768.208-.608 2.035-.547-1.254-1.677.201-.567Zm2.47-6.717-.771.944 2.31 1.885-.55.684-2.307-1.888-.771.932-.522-.42 2.1-2.563Zm4.928-3.466L8.685 3.158l.397.676 1.692-.99.324.538-1.7.992.458.778 1.885-1.098.342.586-2.64 1.54L7.6 3.02l2.595-1.522ZM17.61 3.5l-.944.062-.474-.784-1.482.233-.204.9-.916.233.96-3.994.906-.147 2.154 3.498ZM15.133.87l-.311 1.533 1.076-.173Zm8.358 3.808-.768-.3.819-2.865-1.763 2.583-.669-.173-.278-3.104-.698 2.887-.819-.125L20.243 0l1.235.24.205 2.886L23.274.704l1.17.397z" />
    <path d="M16.509 11.718c-1.1763 1.0693-2.016 1.8874-3.14 2.967-1.912-.4451-5.3627-.2468-6.508 1.037-.8742.9799-.2138 1.9723.889 2.348 1.2783.4355 2.5727.7023 4.298-.556a23.176 23.176 0 0 0 2.416-2.1c.9571.2263 1.6312.4225 2.531.682-.822.806-1.673 1.651-2.457 2.346-1.0345.7851-2.0315 1.7072-3.06 1.952a2.32 2.32 0 0 1-1.555-.103c.7386.8786 1.6799.8354 2.311.787 1.263-.1523 2.198-.723 3.41-1.846.9205-.9038 1.8324-1.8162 2.743-2.73.7826.2309 1.5656.4602 2.349.688-1.8343 1.7018-3.4574 3.5561-5.312 4.967-1.222.86-2.25 1.312-3.165 1.366a3.122 3.122 0 0 1-1.731-.336c.5961.7721 1.7909 1.1441 2.63 1.152 1.479-.038 2.788-.749 4.807-2.617 1.5472-1.4683 2.698-2.6733 4.182-4.18.944.218 1.91.314 2.877.292 1.434-.026 2.7094-.7157 2.656-1.498-.0778-1.141-1.4696-1.6274-2.496-1.578-1.789.0861-2.5894.7045-4.093 2.078-.7922-.2243-1.5897-.4424-2.384-.663.621-.583 1.149-1.085 1.629-1.501a5.718 5.718 0 0 1 3.168-1.494c.54-.036 1.498.012 1.885.29-.5567-.7571-1.8028-1.0566-2.637-1.042-.73 0-1.894.23-3.331 1.337a23.7549 23.7549 0 0 0-2.122 2.01c-.8088-.2591-1.714-.5286-2.445-.749.8984-.827 1.8006-1.7208 2.66-2.506 2.006-1.696 3.29-1.92 4.17-1.93.8679-.0115 1.7113.335 2.326.561a4.377 4.377 0 0 0-3.357-1.363c-1.242-.023-2.714.665-4.144 1.932zM8.56 17.766c-.641-.0244-1.003-.3118-.96-.812.1317-1.5323 2.8693-1.8727 5.302-1.808-1.7235 1.531-2.9045 2.6747-4.342 2.62zm14.845-1.299c1.062-.71 1.936-1.091 2.48-1.072.323.013.71.112.71.512s-.39.752-1.152 1.024a6.757 6.757 0 0 1-2.829.17c.253-.224.516-.439.79-.634z" />
  </g>
  <circle cx="25.7578" cy="2.6211" r=".5898" fill="none" stroke="#003d79" stroke-linecap="round" stroke-width=".125" />
</svg>